<?xml version="1.0" encoding="utf-8"?>
<!-- Generator: Adobe Illustrator 26.5.0, SVG Export Plug-In . SVG Version: 6.00 Build 0)  -->
<svg version="1.1" id="Layer_1" xmlns="http://www.w3.org/2000/svg" xmlns:xlink="http://www.w3.org/1999/xlink" x="0px" y="0px"
	 viewBox="0 0 612 792" style="enable-background:new 0 0 612 792;" xml:space="preserve">
<style type="text/css">
	.st0{fill:none;stroke:#000000;stroke-width:1.5;}
	.st1{fill-rule:evenodd;clip-rule:evenodd;}
</style>
<path class="st0" d="M300.29,379.85v-15.52 M296.41,368.47h7.76"/>
<path class="st1" d="M280.89,400.4v14.37h4.85h29.1h4.85V400.4h-4.85v-14.66l-14.55-9.77l-14.55,9.77v14.66h-2.43H280.89z
	 M300.29,399.25c3.57,0,6.47-2.9,6.47-6.47c0-3.57-2.9-6.47-6.47-6.47c-3.57,0-6.47,2.9-6.47,6.47
	C293.82,396.36,296.72,399.25,300.29,399.25z"/>
<path d="M280.89,414.78h-0.65v0.65h0.65V414.78z M280.89,400.4v-0.65h-0.65v0.65H280.89z M319.69,414.78v0.65h0.65v-0.65H319.69z
	 M319.69,400.4h0.65v-0.65h-0.65V400.4z M314.84,400.4h-0.65v0.65h0.65V400.4z M314.84,385.75h0.65v-0.34l-0.29-0.19L314.84,385.75z
	 M300.29,375.97l0.36-0.54l-0.36-0.24l-0.36,0.24L300.29,375.97z M285.74,385.75l-0.36-0.54l-0.29,0.19v0.34H285.74z M285.74,400.4
	v0.65h0.65v-0.65H285.74z M281.53,414.78V400.4h-1.29v14.37H281.53z M285.74,414.13h-4.85v1.29h4.85V414.13z M314.84,414.13h-29.1
	v1.29h29.1V414.13z M319.69,414.13h-4.85v1.29h4.85V414.13z M319.04,400.4v14.37h1.29V400.4H319.04z M314.84,401.05h4.85v-1.29
	h-4.85V401.05z M314.19,385.75v14.66h1.29v-14.66H314.19z M299.93,376.51l14.55,9.77l0.72-1.07l-14.55-9.77L299.93,376.51z
	 M286.1,386.28l14.55-9.77l-0.72-1.07l-14.55,9.77L286.1,386.28z M286.39,400.4v-14.66h-1.29v14.66H286.39z M283.31,401.05h2.43
	v-1.29h-2.43V401.05z M280.89,401.05h2.43v-1.29h-2.43V401.05z M306.11,392.79c0,3.21-2.61,5.82-5.82,5.82v1.29
	c3.93,0,7.11-3.18,7.11-7.11H306.11z M300.29,386.97c3.21,0,5.82,2.61,5.82,5.82h1.29c0-3.93-3.18-7.11-7.11-7.11V386.97z
	 M294.47,392.79c0-3.21,2.61-5.82,5.82-5.82v-1.29c-3.93,0-7.11,3.18-7.11,7.11H294.47z M300.29,398.61c-3.21,0-5.82-2.61-5.82-5.82
	h-1.29c0,3.93,3.18,7.11,7.11,7.11V398.61z M314.84,385.1h-29.1v1.29h29.1V385.1z M315.49,414.78V400.4h-1.29v14.37H315.49z
	 M285.09,400.4v14.37h1.29V400.4H285.09z"/>
</svg>
